<?xml version="1.0" encoding="UTF-8"?>
<svg width="605px" height="77px" viewBox="0 0 605 77" version="1.1" xmlns="http://www.w3.org/2000/svg" xmlns:xlink="http://www.w3.org/1999/xlink">
    <!-- Generator: Sketch 62 (91390) - https://sketch.com -->
    <title>XavierMod</title>
    <desc>Created with Sketch.</desc>
    <g id="Page-1" stroke="none" stroke-width="1" fill="none" fill-rule="evenodd">
        <g id="XavierMod" fill="#FFFFFF" fill-rule="nonzero">
            <path d="M1.960938,76 C2.570312,76 3.111979,75.779948 3.585938,75.339844 C4.059896,74.89974 4.516927,74.375 4.957031,73.765625 C5.397135,73.15625 5.803385,72.546875 6.175781,71.9375 C6.548177,71.328125 6.9375,70.888021 7.34375,70.617188 L7.34375,70.617188 L26.742188,46.851562 L33.140625,40.351562 C33.411458,42.518229 33.783854,44.888021 34.257812,47.460938 C34.731771,50.033854 35.290365,52.623698 35.933594,55.230469 C36.576823,57.83724 37.389323,60.359375 38.371094,62.796875 C39.352865,65.234375 40.520833,67.367188 41.875,69.195312 C43.229167,71.023438 44.786458,72.513021 46.546875,73.664062 C48.307292,74.815104 50.338542,75.390625 52.640625,75.390625 C56.364583,75.390625 59.546875,75.136719 62.1875,74.628906 C64.828125,74.121094 67.164062,73.27474 69.195312,72.089844 C71.226562,70.904948 73.020833,69.279948 74.578125,67.214844 C76.135417,65.14974 77.658854,62.492188 79.148438,59.242188 C79.216146,59.174479 79.317708,58.988281 79.453125,58.683594 C79.588542,58.378906 79.690104,58.074219 79.757812,57.769531 C79.825521,57.464844 79.910156,57.160156 80.011719,56.855469 C80.113281,56.550781 80.164062,56.398438 80.164062,56.398438 C80.164062,56.263021 80.096354,56.009115 79.960938,55.636719 C79.825521,55.264323 79.723958,55.010417 79.65625,54.875 C79.520833,54.875 79.317708,54.858073 79.046875,54.824219 C78.776042,54.790365 78.572917,54.773438 78.4375,54.773438 C77.828125,54.773438 77.252604,55.16276 76.710938,55.941406 C76.169271,56.720052 75.492188,57.651042 74.679688,58.734375 C73.867188,59.817708 72.902344,61.036458 71.785156,62.390625 C70.667969,63.744792 69.263021,64.963542 67.570312,66.046875 C65.877604,67.130208 63.846354,68.061198 61.476562,68.839844 C59.106771,69.61849 56.330729,70.007812 53.148438,70.007812 C50.914062,70.007812 49.035156,69.415365 47.511719,68.230469 C45.988281,67.045573 44.71875,65.539062 43.703125,63.710938 C42.6875,61.882812 41.875,59.75 41.265625,57.3125 C40.65625,54.875 40.199219,52.369792 39.894531,49.796875 C39.589844,47.223958 39.386719,44.667969 39.285156,42.128906 C39.183594,39.589844 39.132812,37.338542 39.132812,35.375 L39.132812,35.375 L39.132812,34.867188 L67.367188,9.679688 C67.705729,9.341146 67.875,9.002604 67.875,8.664062 L67.875,8.664062 L67.875,7.648438 C67.875,6.971354 67.654948,6.395833 67.214844,5.921875 C66.77474,5.447917 66.114583,5.210938 65.234375,5.210938 C65.166667,5.210938 64.878906,5.346354 64.371094,5.617188 C63.863281,5.888021 63.507812,6.057292 63.304688,6.125 L63.304688,6.125 L39.539062,26.945312 C39.606771,25.794271 39.623698,24.490885 39.589844,23.035156 C39.55599,21.579427 39.31901,20.22526 38.878906,18.972656 C38.438802,17.720052 37.761719,16.670573 36.847656,15.824219 C35.933594,14.977865 34.697917,14.554688 33.140625,14.554688 L33.140625,14.554688 L32.632812,14.554688 C32.497396,14.554688 32.158854,14.622396 31.617188,14.757812 C31.075521,14.893229 30.736979,14.994792 30.601562,15.0625 C29.856771,15.333333 28.46875,15.824219 26.4375,16.535156 C24.40625,17.246094 22.273438,17.990885 20.039062,18.769531 C17.804688,19.548177 15.671875,20.292969 13.640625,21.003906 C11.609375,21.714844 10.1875,22.239583 9.375,22.578125 C8.765625,22.510417 8.122396,22.476562 7.445312,22.476562 C6.768229,22.476562 6.125,22.578125 5.515625,22.78125 C4.90625,22.984375 4.398438,23.30599 3.992188,23.746094 C3.585938,24.186198 3.382812,24.744792 3.382812,25.421875 C3.382812,26.572917 3.636719,27.300781 4.144531,27.605469 C4.652344,27.910156 5.414062,28.0625 6.429688,28.0625 C7.716146,28.0625 8.816406,27.977865 9.730469,27.808594 C10.644531,27.639323 11.846354,27.351562 13.335938,26.945312 C16.044271,25.861979 19.074219,24.643229 22.425781,23.289062 C25.777344,21.934896 29.044271,20.851562 32.226562,20.039062 L32.226562,20.039062 L32.429688,20.039062 C32.700521,20.039062 32.971354,20.242188 33.242188,20.648438 C33.513021,21.054688 33.648438,21.359375 33.648438,21.5625 L33.648438,21.5625 L33.648438,31.921875 L32.632812,33.445312 C32.294271,33.716146 31.701823,34.27474 30.855469,35.121094 C30.009115,35.967448 29.111979,36.864583 28.164062,37.8125 C27.784896,38.191667 27.413854,38.562708 27.050937,38.925625 L25.472656,40.503906 C24.626302,41.35026 24.067708,41.942708 23.796875,42.28125 C23.661458,42.416667 23.424479,42.6875 23.085938,43.09375 C22.747396,43.5 22.391927,43.973958 22.019531,44.515625 C21.647135,45.057292 21.27474,45.548177 20.902344,45.988281 C20.529948,46.428385 20.34375,46.716146 20.34375,46.851562 L20.34375,46.851562 L20.089844,47.105469 C19.988281,47.207031 19.903646,47.257812 19.835938,47.257812 L19.835938,47.257812 L0.4375,72.039062 C0.369792,72.106771 0.302083,72.326823 0.234375,72.699219 C0.166667,73.071615 0.098958,73.359375 0.03125,73.5625 L0.03125,73.5625 L0.03125,73.96875 C0.03125,75.322917 0.674479,76 1.960938,76 Z M82.5,76.101562 C84.328125,76.101562 86.122396,75.729167 87.882812,74.984375 C89.643229,74.239583 91.369792,73.359375 93.0625,72.34375 C94.755208,71.328125 96.380208,70.210938 97.9375,68.992188 C99.494792,67.773438 100.950521,66.622396 102.304688,65.539062 C102.169271,66.825521 102.186198,68.061198 102.355469,69.246094 C102.52474,70.43099 102.846354,71.446615 103.320312,72.292969 C103.794271,73.139323 104.505208,73.816406 105.453125,74.324219 C106.401042,74.832031 107.619792,75.085938 109.109375,75.085938 C110.057292,75.085938 111.123698,74.967448 112.308594,74.730469 C113.49349,74.49349 114.695312,74.171875 115.914062,73.765625 C117.132812,73.359375 118.317708,72.936198 119.46875,72.496094 C120.619792,72.05599 121.669271,71.565104 122.617188,71.023438 C123.158854,70.820312 124.05599,70.380208 125.308594,69.703125 C126.561198,69.026042 127.898438,68.315104 129.320312,67.570312 C130.742188,66.825521 132.079427,66.148438 133.332031,65.539062 C134.584635,64.929688 135.447917,64.455729 135.921875,64.117188 C136.260417,63.846354 136.446615,63.558594 136.480469,63.253906 C136.514323,62.949219 136.53125,62.627604 136.53125,62.289062 C136.53125,61.611979 136.311198,61.070312 135.871094,60.664062 C135.43099,60.257812 134.872396,60.054688 134.195312,60.054688 C134.127604,60.054688 134.009115,60.071615 133.839844,60.105469 C133.670573,60.139323 133.552083,60.15625 133.484375,60.15625 L133.484375,60.15625 L114.1875,69.09375 C113.510417,69.364583 112.85026,69.516927 112.207031,69.550781 C111.563802,69.584635 110.903646,69.601562 110.226562,69.601562 C110.091146,69.601562 109.752604,69.584635 109.210938,69.550781 C108.669271,69.516927 108.330729,69.5 108.195312,69.5 C108.127604,69.364583 108.042969,68.97526 107.941406,68.332031 C107.839844,67.688802 107.755208,67.299479 107.6875,67.164062 L107.6875,67.164062 L107.6875,66.554688 C107.6875,64.726562 107.873698,62.983073 108.246094,61.324219 C108.61849,59.665365 109.02474,57.989583 109.464844,56.296875 C109.904948,54.604167 110.311198,52.928385 110.683594,51.269531 C111.05599,49.610677 111.242188,47.901042 111.242188,46.140625 C111.242188,44.854167 111.123698,43.567708 110.886719,42.28125 C110.64974,40.994792 110.24349,39.84375 109.667969,38.828125 C109.092448,37.8125 108.313802,36.983073 107.332031,36.339844 C106.35026,35.696615 105.114583,35.375 103.625,35.375 L103.625,35.375 L101.796875,35.375 C97.734375,35.848958 93.99349,37.152344 90.574219,39.285156 C87.154948,41.417969 84.345052,44.058594 82.144531,47.207031 C79.94401,50.355469 78.420573,53.893229 77.574219,57.820312 C76.727865,61.747396 76.880208,65.742188 78.03125,69.804688 L78.03125,69.804688 L78.03125,72.953125 C78.369792,74.036458 78.945312,74.832031 79.757812,75.339844 C80.570312,75.847656 81.484375,76.101562 82.5,76.101562 Z M83.515625,70.820312 L83.515625,68.078125 L85.953125,56.195312 C86.020833,55.992188 86.139323,55.738281 86.308594,55.433594 C86.477865,55.128906 86.68099,54.807292 86.917969,54.46875 C87.154948,54.130208 87.375,53.842448 87.578125,53.605469 C87.78125,53.36849 87.916667,53.25 87.984375,53.25 C88.322917,52.911458 88.949219,52.268229 89.863281,51.320312 C90.777344,50.372396 91.759115,49.356771 92.808594,48.273438 C93.858073,47.190104 94.856771,46.191406 95.804688,45.277344 C96.752604,44.363281 97.429688,43.736979 97.835938,43.398438 C97.971354,43.330729 98.259115,43.296875 98.699219,43.296875 L98.699219,43.296875 L99.5625,43.296875 C100.578125,43.296875 101.390625,43.364583 102,43.5 C102.609375,43.635417 103.354167,44.075521 104.234375,44.820312 C104.234375,44.955729 104.251302,45.158854 104.285156,45.429688 C104.31901,45.700521 104.335938,45.903646 104.335938,46.039062 C104.335938,48.002604 104.082031,49.915365 103.574219,51.777344 C103.066406,53.639323 102.778646,55.585938 102.710938,57.617188 C101.898438,58.835938 100.747396,60.207031 99.257812,61.730469 C97.768229,63.253906 96.109375,64.692708 94.28125,66.046875 C92.453125,67.401042 90.591146,68.535156 88.695312,69.449219 C86.799479,70.363281 85.072917,70.820312 83.515625,70.820312 L83.515625,70.820312 Z M139.679688,76.101562 C141.778646,76.101562 143.809896,75.610677 145.773438,74.628906 C147.736979,73.647135 149.666667,72.614583 151.5625,71.53125 C154.541667,69.838542 157.13151,67.99349 159.332031,65.996094 C161.532552,63.998698 163.513021,61.865885 165.273438,59.597656 C167.033854,57.329427 168.574219,54.858073 169.894531,52.183594 C171.214844,49.509115 172.518229,46.580729 173.804688,43.398438 L173.804688,43.398438 L174.414062,42.890625 C176.377604,43.026042 178.053385,43.127604 179.441406,43.195312 C180.829427,43.263021 182.14974,43.229167 183.402344,43.09375 C184.654948,42.958333 185.958333,42.738281 187.3125,42.433594 C188.666667,42.128906 190.325521,41.705729 192.289062,41.164062 L192.289062,41.164062 L190.257812,36.796875 C190.257812,36.796875 189.834635,36.864583 188.988281,37 C188.141927,37.135417 187.143229,37.270833 185.992188,37.40625 C184.841146,37.541667 183.639323,37.69401 182.386719,37.863281 C181.134115,38.032552 180.101562,38.151042 179.289062,38.21875 L179.289062,38.21875 L178.80727,38.21833 C178.242101,38.215532 177.928741,38.198745 177.867188,38.167969 C177.799479,38.134115 177.799479,38.032552 177.867188,37.863281 C177.934896,37.69401 177.951823,37.541667 177.917969,37.40625 C177.884115,37.270833 177.528646,37.101562 176.851562,36.898438 C176.716146,36.830729 176.513021,36.746094 176.242188,36.644531 C175.971354,36.542969 175.802083,36.458333 175.734375,36.390625 C175.53125,35.984375 175.378906,35.544271 175.277344,35.070312 C175.175781,34.596354 175.040365,34.15625 174.871094,33.75 C174.701823,33.34375 174.464844,33.022135 174.160156,32.785156 C173.855469,32.548177 173.364583,32.429688 172.6875,32.429688 C172.145833,32.429688 171.604167,32.852865 171.0625,33.699219 C170.520833,34.545573 169.979167,35.645833 169.4375,37 C168.895833,38.354167 168.354167,39.809896 167.8125,41.367188 C167.270833,42.924479 166.729167,44.464844 166.1875,45.988281 C165.645833,47.511719 165.138021,48.865885 164.664062,50.050781 C164.190104,51.235677 163.783854,52.132812 163.445312,52.742188 C162.361979,54.299479 161.3125,55.704427 160.296875,56.957031 C159.28125,58.209635 158.197917,59.377604 157.046875,60.460938 C155.895833,61.544271 154.677083,62.59375 153.390625,63.609375 C152.104167,64.625 150.682292,65.606771 149.125,66.554688 C148.71875,66.825521 148.143229,67.18099 147.398438,67.621094 C146.653646,68.061198 145.841146,68.501302 144.960938,68.941406 C144.080729,69.38151 143.217448,69.770833 142.371094,70.109375 C141.52474,70.447917 140.763021,70.617188 140.085938,70.617188 C139.815104,70.617188 139.595052,70.498698 139.425781,70.261719 C139.25651,70.02474 139.138021,69.736979 139.070312,69.398438 C139.002604,69.059896 138.985677,68.721354 139.019531,68.382812 C139.053385,68.044271 139.070312,67.773438 139.070312,67.570312 C139.070312,66.216146 139.154948,64.997396 139.324219,63.914062 C139.49349,62.830729 139.78125,61.578125 140.1875,60.15625 L140.1875,60.15625 L147.09375,37.914062 L147.09375,36.695312 C147.09375,35.815104 146.856771,34.951823 146.382812,34.105469 C145.908854,33.259115 145.164062,32.835938 144.148438,32.835938 C143.268229,32.835938 142.421875,33.377604 141.609375,34.460938 C140.796875,35.544271 140.035156,36.932292 139.324219,38.625 C138.613281,40.317708 138.003906,42.264323 137.496094,44.464844 C136.988281,46.665365 136.598958,48.882812 136.328125,51.117188 L136.328125,51.117188 L133.28125,65.132812 L133.28125,67.570312 C133.28125,68.653646 133.365885,69.720052 133.535156,70.769531 C133.704427,71.81901 134.026042,72.733073 134.5,73.511719 C134.973958,74.290365 135.634115,74.916667 136.480469,75.390625 C137.326823,75.864583 138.393229,76.101562 139.679688,76.101562 Z M195.4375,30.5 C196.25,30.5 197.079427,30.127604 197.925781,29.382812 C198.772135,28.638021 199.195312,27.825521 199.195312,26.945312 C199.195312,26.065104 198.890625,25.50651 198.28125,25.269531 C197.671875,25.032552 197.0625,24.914062 196.453125,24.914062 C195.234375,24.914062 194.388021,25.117188 193.914062,25.523438 C193.440104,25.929688 193.203125,26.742188 193.203125,27.960938 C193.203125,28.638021 193.372396,29.230469 193.710938,29.738281 C194.049479,30.246094 194.625,30.5 195.4375,30.5 Z M193.304688,76.101562 C195.200521,76.101562 197.113281,75.796875 199.042969,75.1875 C200.972656,74.578125 202.851562,73.816406 204.679688,72.902344 C206.507812,71.988281 208.251302,70.972656 209.910156,69.855469 C211.56901,68.738281 213.109375,67.638021 214.53125,66.554688 C214.53125,66.486979 214.582031,66.402344 214.683594,66.300781 C214.785156,66.199219 214.869792,66.114583 214.9375,66.046875 C215.005208,66.046875 215.191406,65.96224 215.496094,65.792969 C215.800781,65.623698 215.986979,65.539062 216.054688,65.539062 C216.257812,65.471354 216.5625,65.285156 216.96875,64.980469 C217.375,64.675781 217.815104,64.33724 218.289062,63.964844 C218.763021,63.592448 219.220052,63.236979 219.660156,62.898438 C220.10026,62.559896 220.354167,62.289062 220.421875,62.085938 C220.760417,61.815104 220.946615,61.510417 220.980469,61.171875 C221.014323,60.833333 221.03125,60.460938 221.03125,60.054688 C221.03125,59.106771 220.74349,58.446615 220.167969,58.074219 C219.592448,57.701823 218.864583,57.515625 217.984375,57.515625 C217.307292,57.515625 216.816406,57.634115 216.511719,57.871094 C216.207031,58.108073 215.953125,58.378906 215.75,58.683594 C215.546875,58.988281 215.326823,59.309896 215.089844,59.648438 C214.852865,59.986979 214.497396,60.325521 214.023438,60.664062 C212.736979,61.544271 211.298177,62.576823 209.707031,63.761719 C208.115885,64.946615 206.457031,66.029948 204.730469,67.011719 C203.003906,67.99349 201.24349,68.839844 199.449219,69.550781 C197.654948,70.261719 195.877604,70.617188 194.117188,70.617188 C193.778646,70.617188 193.507812,70.43099 193.304688,70.058594 C193.101562,69.686198 192.966146,69.246094 192.898438,68.738281 C192.830729,68.230469 192.796875,67.722656 192.796875,67.214844 L192.796875,67.214844 L192.796875,66.046875 C192.796875,63.880208 193.050781,61.967448 193.558594,60.308594 C194.066406,58.64974 194.625,57.092448 195.234375,55.636719 C195.84375,54.18099 196.402344,52.72526 196.910156,51.269531 C197.417969,49.813802 197.671875,48.205729 197.671875,46.445312 C197.671875,45.429688 197.502604,44.549479 197.164062,43.804688 C196.825521,43.059896 196.114583,42.6875 195.03125,42.6875 C194.015625,42.6875 193.321615,42.856771 192.949219,43.195312 C192.576823,43.533854 192.1875,44.244792 191.78125,45.328125 C191.645833,45.666667 191.408854,46.276042 191.070312,47.15625 C190.731771,48.036458 190.376302,48.984375 190.003906,50 C189.63151,51.015625 189.276042,51.963542 188.9375,52.84375 C188.598958,53.723958 188.395833,54.333333 188.328125,54.671875 L188.328125,54.671875 L186.90625,63.710938 C186.90625,64.861979 186.940104,66.148438 187.007812,67.570312 C187.075521,68.992188 187.3125,70.346354 187.71875,71.632812 C188.125,72.919271 188.751302,73.985677 189.597656,74.832031 C190.44401,75.678385 191.679688,76.101562 193.304688,76.101562 Z M237.382812,76.101562 C238.533854,76.101562 239.938802,75.966146 241.597656,75.695312 C243.25651,75.424479 245,75.018229 246.828125,74.476562 C248.65625,73.934896 250.501302,73.257812 252.363281,72.445312 C254.22526,71.632812 255.884115,70.701823 257.339844,69.652344 C258.795573,68.602865 259.980469,67.417969 260.894531,66.097656 C261.808594,64.777344 262.265625,63.372396 262.265625,61.882812 C262.265625,61.341146 262.197917,60.799479 262.0625,60.257812 C261.927083,59.716146 261.520833,59.445312 260.84375,59.445312 C260.166667,59.445312 259.523438,59.699219 258.914062,60.207031 C258.304688,60.714844 257.729167,61.307292 257.1875,61.984375 C256.645833,62.661458 256.121094,63.321615 255.613281,63.964844 C255.105469,64.608073 254.682292,65.098958 254.34375,65.4375 C251.90625,67.401042 249.231771,68.822917 246.320312,69.703125 C243.408854,70.583333 240.361979,71.023438 237.179688,71.023438 C236.096354,71.023438 235.097656,70.972656 234.183594,70.871094 C233.269531,70.769531 232.457031,70.498698 231.746094,70.058594 C231.035156,69.61849 230.476562,69.026042 230.070312,68.28125 C229.664062,67.536458 229.460938,66.554688 229.460938,65.335938 L229.460938,65.335938 L229.460938,65.132812 C229.460938,64.929688 229.528646,64.591146 229.664062,64.117188 C229.799479,63.643229 229.901042,63.304688 229.96875,63.101562 C232.135417,61.273438 234.065104,59.529948 235.757812,57.871094 C237.450521,56.21224 238.889323,54.434896 240.074219,52.539062 C241.259115,50.643229 242.139323,48.578125 242.714844,46.34375 C243.290365,44.109375 243.578125,41.536458 243.578125,38.625 C243.578125,38.354167 243.561198,37.863281 243.527344,37.152344 L243.516686,36.923515 C243.489937,36.335037 243.476562,35.920428 243.476562,35.679688 C243.205729,34.934896 242.884115,34.240885 242.511719,33.597656 C242.139323,32.954427 241.513021,32.632812 240.632812,32.632812 C238.263021,32.632812 236.282552,33.157552 234.691406,34.207031 C233.10026,35.25651 231.796875,36.59375 230.78125,38.21875 C229.765625,39.84375 228.970052,41.604167 228.394531,43.5 C227.81901,45.395833 227.328125,47.15625 226.921875,48.78125 C226.786458,49.1875 226.60026,49.949219 226.363281,51.066406 C226.126302,52.183594 225.855469,53.351562 225.550781,54.570312 C225.246094,55.789062 224.941406,56.923177 224.636719,57.972656 C224.332031,59.022135 224.111979,59.75 223.976562,60.15625 L223.976562,60.15625 L223.46875,67.164062 C224.348958,70.752604 225.990885,73.139323 228.394531,74.324219 C230.798177,75.509115 233.794271,76.101562 237.382812,76.101562 Z M231.390625,54.164062 C231.729167,52.539062 232.050781,51.117188 232.355469,49.898438 C232.660156,48.679688 233.032552,47.545573 233.472656,46.496094 C233.91276,45.446615 234.522135,44.43099 235.300781,43.449219 C236.079427,42.467448 237.145833,41.367188 238.5,40.148438 C238.364583,41.773438 238.161458,43.21224 237.890625,44.464844 C237.619792,45.717448 237.213542,46.885417 236.671875,47.96875 C236.130208,49.052083 235.436198,50.101562 234.589844,51.117188 C233.74349,52.132812 232.677083,53.148438 231.390625,54.164062 Z M283.1875,75.59375 C284.135417,75.59375 285.50651,75.289062 287.300781,74.679688 C289.095052,74.070312 291.058594,73.257812 293.191406,72.242188 C295.324219,71.226562 297.507812,70.092448 299.742188,68.839844 C301.976562,67.58724 304.007812,66.317708 305.835938,65.03125 C307.664062,63.744792 309.153646,62.492188 310.304688,61.273438 C311.455729,60.054688 312.03125,59.039062 312.03125,58.226562 C312.03125,58.023438 311.997396,57.71875 311.929688,57.3125 C311.861979,56.90625 311.726562,56.703125 311.523438,56.703125 L311.523438,56.703125 L308.476562,56.703125 C307.934896,57.109375 307.427083,57.515625 306.953125,57.921875 C306.005208,58.666667 305.192708,59.242188 304.515625,59.648438 C304.109375,59.919271 303.686198,60.207031 303.246094,60.511719 C302.80599,60.816406 302.450521,61.205729 302.179688,61.679688 L302.179688,61.679688 L293.242188,67.164062 C292.497396,67.299479 291.786458,67.519531 291.109375,67.824219 C290.432292,68.128906 289.738281,68.450521 289.027344,68.789062 C288.316406,69.127604 287.622396,69.432292 286.945312,69.703125 C286.268229,69.973958 285.523438,70.109375 284.710938,70.109375 C284.372396,70.109375 284.016927,70.092448 283.644531,70.058594 C283.272135,70.02474 283.119792,69.703125 283.1875,69.09375 L283.1875,69.09375 L283.1875,66.453125 C283.1875,65.098958 283.339844,63.592448 283.644531,61.933594 L283.644531,61.933594 L284.558594,56.957031 C284.863281,55.298177 285.167969,53.65625 285.472656,52.03125 C285.777344,50.40625 285.929688,48.950521 285.929688,47.664062 C285.929688,46.242188 285.675781,45.141927 285.167969,44.363281 C284.660156,43.584635 283.796875,42.856771 282.578125,42.179688 C281.494792,41.638021 280.242188,41.130208 278.820312,40.65625 C277.398438,40.182292 276.061198,39.742188 274.808594,39.335938 C273.55599,38.929688 272.50651,38.557292 271.660156,38.21875 C270.813802,37.880208 270.424479,37.575521 270.492188,37.304688 C269.815104,37.304688 269.239583,37.541667 268.765625,38.015625 C268.291667,38.489583 267.885417,39.048177 267.546875,39.691406 C267.208333,40.334635 266.954427,41.028646 266.785156,41.773438 C266.615885,42.518229 266.53125,43.161458 266.53125,43.703125 C266.53125,44.244792 266.548177,44.701823 266.582031,45.074219 C266.615885,45.446615 266.768229,45.869792 267.039062,46.34375 C266.294271,48.171875 265.752604,49.847656 265.414062,51.371094 C265.075521,52.894531 264.635417,54.333333 264.09375,55.6875 C263.552083,57.041667 262.824219,58.395833 261.910156,59.75 C260.996094,61.104167 259.591146,62.492188 257.695312,63.914062 C257.627604,65.132812 257.661458,66.063802 257.796875,66.707031 C257.932292,67.35026 258.11849,67.824219 258.355469,68.128906 C258.592448,68.433594 258.829427,68.619792 259.066406,68.6875 C259.303385,68.755208 259.455729,68.789062 259.523438,68.789062 C262.164062,66.960938 264.042969,65.098958 265.160156,63.203125 C266.277344,61.307292 267.123698,59.411458 267.699219,57.515625 C268.27474,55.619792 268.85026,53.791667 269.425781,52.03125 C270.001302,50.270833 271.033854,48.611979 272.523438,47.054688 C272.523438,47.122396 273.014323,47.376302 273.996094,47.816406 C274.977865,48.25651 276.044271,48.764323 277.195312,49.339844 C278.346354,49.915365 279.41276,50.440104 280.394531,50.914062 C281.376302,51.388021 281.867188,51.658854 281.867188,51.726562 C281.867188,52.539062 281.630208,53.622396 281.15625,54.976562 C280.682292,56.330729 280.140625,57.71875 279.53125,59.140625 C278.921875,60.5625 278.380208,61.950521 277.90625,63.304688 C277.432292,64.658854 277.195312,65.708333 277.195312,66.453125 C277.195312,67.46875 277.279948,68.501302 277.449219,69.550781 C277.61849,70.60026 277.940104,71.565104 278.414062,72.445312 C278.888021,73.325521 279.497396,74.070312 280.242188,74.679688 C280.986979,75.289062 281.96875,75.59375 283.1875,75.59375 Z M415.421875,76 C416.708333,76 417.690104,75.695312 418.367188,75.085938 C419.044271,74.476562 419.552083,73.68099 419.890625,72.699219 C420.229167,71.717448 420.483073,70.634115 420.652344,69.449219 C420.821615,68.264323 421.007812,67.130208 421.210938,66.046875 C421.346354,65.302083 421.566406,64.032552 421.871094,62.238281 C422.175781,60.44401 422.480469,58.514323 422.785156,56.449219 C423.089844,54.384115 423.360677,52.454427 423.597656,50.660156 C423.834635,48.865885 423.986979,47.596354 424.054688,46.851562 C424.867188,43.466146 425.933594,39.945312 427.253906,36.289062 C428.574219,32.632812 430.216146,29.095052 432.179688,25.675781 C434.143229,22.25651 436.411458,19.141927 438.984375,16.332031 C441.557292,13.522135 444.502604,11.304688 447.820312,9.679688 C448.226562,9.476562 448.869792,9.171875 449.75,8.765625 C450.630208,8.359375 451.544271,7.970052 452.492188,7.597656 C453.440104,7.22526 454.388021,6.886719 455.335938,6.582031 C456.283854,6.277344 457.096354,6.125 457.773438,6.125 C459.398438,6.125 460.617188,6.632812 461.429688,7.648438 C462.242188,8.664062 462.783854,9.882812 463.054688,11.304688 C463.325521,12.726562 463.427083,14.216146 463.359375,15.773438 C463.291667,17.330729 463.257812,18.684896 463.257812,19.835938 L463.257812,19.835938 L463.257812,21.003906 C463.257812,21.511719 463.240885,22.019531 463.207031,22.527344 C463.173177,23.035156 463.15625,23.47526 463.15625,23.847656 L463.15625,23.847656 L463.15625,24.507812 L459.703125,64.117188 L459.703125,66.960938 C459.703125,70.210938 460.329427,72.46224 461.582031,73.714844 C462.834635,74.967448 465.018229,75.59375 468.132812,75.59375 C468.742188,75.59375 469.723958,75.458333 471.078125,75.1875 C472.432292,74.916667 473.938802,74.561198 475.597656,74.121094 C477.25651,73.68099 478.966146,73.139323 480.726562,72.496094 C482.486979,71.852865 484.095052,71.158854 485.550781,70.414062 C487.00651,69.669271 488.191406,68.873698 489.105469,68.027344 C490.019531,67.18099 490.476562,66.317708 490.476562,65.4375 C490.476562,64.760417 490.341146,64.354167 490.070312,64.21875 C489.799479,64.083333 489.359375,64.015625 488.75,64.015625 C488.208333,64.015625 487.768229,64.083333 487.429688,64.21875 C487.091146,64.354167 486.786458,64.50651 486.515625,64.675781 C486.244792,64.845052 485.973958,65.048177 485.703125,65.285156 C485.432292,65.522135 485.059896,65.776042 484.585938,66.046875 C482.013021,67.401042 479.473958,68.518229 476.96875,69.398438 C474.463542,70.278646 471.789062,70.71875 468.945312,70.71875 C468.742188,70.71875 468.285156,70.701823 467.574219,70.667969 C466.863281,70.634115 466.40625,70.617188 466.203125,70.617188 C465.864583,69.872396 465.695312,69.229167 465.695312,68.6875 L465.695312,68.6875 L465.695312,65.132812 L469.25,27.453125 L469.25,21.15625 C469.25,18.921875 469.199219,16.602865 469.097656,14.199219 C468.996094,11.795573 468.606771,9.595052 467.929688,7.597656 C467.252604,5.60026 466.11849,3.958333 464.527344,2.671875 C462.936198,1.385417 460.684896,0.742188 457.773438,0.742188 C455.335938,0.742188 452.949219,1.216146 450.613281,2.164062 C448.277344,3.111979 446.026042,4.364583 443.859375,5.921875 C441.692708,7.479167 439.627604,9.273438 437.664062,11.304688 C435.700521,13.335938 433.90625,15.46875 432.28125,17.703125 C430.65625,19.9375 429.183594,22.205729 427.863281,24.507812 C426.542969,26.809896 425.442708,28.942708 424.5625,30.90625 C424.359375,29.484375 424.190104,27.740885 424.054688,25.675781 C423.919271,23.610677 423.733073,21.460938 423.496094,19.226562 C423.259115,16.992188 422.920573,14.77474 422.480469,12.574219 C422.040365,10.373698 421.397135,8.393229 420.550781,6.632812 C419.704427,4.872396 418.58724,3.433594 417.199219,2.316406 C415.811198,1.199219 414.067708,0.640625 411.96875,0.640625 C410.34375,0.640625 408.71875,0.945312 407.09375,1.554688 C405.46875,2.164062 403.911458,2.908854 402.421875,3.789062 C400.932292,4.669271 399.527344,5.667969 398.207031,6.785156 C396.886719,7.902344 395.617188,9.002604 394.398438,10.085938 C394.195312,9.679688 394.042969,9.222656 393.941406,8.714844 C393.839844,8.207031 393.856771,7.682292 393.992188,7.140625 C393.653646,6.53125 393.332031,5.83724 393.027344,5.058594 C392.722656,4.279948 392.316406,3.518229 391.808594,2.773438 C391.300781,2.028646 390.72526,1.419271 390.082031,0.945312 C389.438802,0.471354 388.677083,0.234375 387.796875,0.234375 C385.291667,0.234375 382.955729,0.776042 380.789062,1.859375 C378.622396,2.942708 376.50651,4.127604 374.441406,5.414062 C372.376302,6.700521 370.294271,7.902344 368.195312,9.019531 C366.096354,10.136719 363.861979,10.695312 361.492188,10.695312 C360.882812,10.695312 360.358073,10.509115 359.917969,10.136719 C359.477865,9.764323 358.885417,9.578125 358.140625,9.578125 C357.53125,9.578125 356.904948,9.832031 356.261719,10.339844 C355.61849,10.847656 355.296875,11.440104 355.296875,12.117188 C355.296875,13.606771 355.720052,14.65625 356.566406,15.265625 C357.41276,15.875 358.479167,16.179688 359.765625,16.179688 C360.713542,16.179688 361.424479,16.128906 361.898438,16.027344 C362.372396,15.925781 363.151042,15.604167 364.234375,15.0625 L364.234375,15.0625 L383.023438,6.125 C383.091146,6.125 383.361979,6.074219 383.835938,5.972656 C384.309896,5.871094 384.682292,5.786458 384.953125,5.71875 L384.953125,5.71875 L385.257812,5.71875 C386.882812,5.71875 387.796875,6.53125 388,8.15625 L388,8.15625 L388,15.367188 C388,16.518229 387.830729,17.567708 387.492188,18.515625 C387.221354,19.057292 386.747396,19.988281 386.070312,21.308594 C385.393229,22.628906 384.682292,24.016927 383.9375,25.472656 C383.192708,26.928385 382.498698,28.316406 381.855469,29.636719 C381.21224,30.957031 380.789062,31.888021 380.585938,32.429688 C380.247396,33.174479 379.858073,34.15625 379.417969,35.375 C378.977865,36.59375 378.554688,37.795573 378.148438,38.980469 C377.742188,40.165365 377.386719,41.231771 377.082031,42.179688 C376.777344,43.127604 376.625,43.669271 376.625,43.804688 L376.625,43.804688 L376.625,44.3125 C373.578125,52.911458 372.054688,61.713542 372.054688,70.71875 L372.054688,70.71875 L372.054688,72.496094 C372.054688,72.86849 372.071615,73.190104 372.105469,73.460938 C372.139323,73.731771 372.15625,73.901042 372.15625,73.96875 L372.15625,73.96875 L372.5625,74.984375 C372.630208,74.984375 372.833333,75.001302 373.171875,75.035156 C373.510417,75.06901 373.78125,75.085938 373.984375,75.085938 C375.135417,75.085938 376.049479,74.89974 376.726562,74.527344 C377.403646,74.154948 377.96224,73.647135 378.402344,73.003906 C378.842448,72.360677 379.214844,71.615885 379.519531,70.769531 C379.824219,69.923177 380.179688,69.026042 380.585938,68.078125 C380.653646,67.807292 380.941406,67.113281 381.449219,65.996094 C381.957031,64.878906 382.481771,63.677083 383.023438,62.390625 C383.565104,61.104167 384.072917,59.919271 384.546875,58.835938 C385.020833,57.752604 385.325521,57.041667 385.460938,56.703125 C385.596354,56.432292 385.799479,55.839844 386.070312,54.925781 C386.341146,54.011719 386.645833,53.013021 386.984375,51.929688 C387.322917,50.846354 387.610677,49.830729 387.847656,48.882812 C388.084635,47.934896 388.270833,47.257812 388.40625,46.851562 C388.473958,46.716146 388.575521,46.22526 388.710938,45.378906 C388.846354,44.532552 389.049479,43.567708 389.320312,42.484375 C389.591146,41.401042 389.828125,40.283854 390.03125,39.132812 C390.234375,37.981771 390.403646,37.067708 390.539062,36.390625 L390.539062,36.390625 L390.539062,35.882812 L393.382812,19.632812 C393.585938,18.346354 394.398438,16.924479 395.820312,15.367188 C397.242188,13.809896 398.867188,12.33724 400.695312,10.949219 C402.523438,9.561198 404.385417,8.410156 406.28125,7.496094 C408.177083,6.582031 409.734375,6.125 410.953125,6.125 C411.96875,6.125 412.815104,6.429688 413.492188,7.039062 C414.169271,7.648438 414.710938,8.393229 415.117188,9.273438 C415.523438,10.153646 415.845052,11.067708 416.082031,12.015625 C416.31901,12.963542 416.505208,13.809896 416.640625,14.554688 C416.708333,15.028646 416.826823,15.773438 416.996094,16.789062 C417.165365,17.804688 417.334635,18.854167 417.503906,19.9375 C417.673177,21.020833 417.825521,22.002604 417.960938,22.882812 C418.096354,23.763021 418.164062,24.304688 418.164062,24.507812 L418.164062,24.507812 L418.164689,33.521798 C418.168033,34.290831 418.184751,35.247106 418.214844,36.390625 C418.248698,37.677083 418.248698,39.065104 418.214844,40.554688 C418.18099,42.044271 418.147135,43.533854 418.113281,45.023438 C418.079427,46.513021 417.960938,47.765625 417.757812,48.78125 C417.554688,49.59375 417.25,50.947917 416.84375,52.84375 C416.4375,54.739583 415.997396,56.770833 415.523438,58.9375 C415.049479,61.104167 414.592448,63.152344 414.152344,65.082031 C413.71224,67.011719 413.390625,68.348958 413.1875,69.09375 L413.1875,69.09375 L413.1875,74.578125 C413.1875,75.119792 413.441406,75.492188 413.949219,75.695312 C414.457031,75.898438 414.947917,76 415.421875,76 Z M379.570312,54.671875 L379.570312,54.164062 C379.570312,53.013021 379.739583,51.557292 380.078125,49.796875 C380.416667,48.036458 380.822917,46.242188 381.296875,44.414062 C381.770833,42.585938 382.295573,40.893229 382.871094,39.335938 C383.446615,37.778646 383.971354,36.627604 384.445312,35.882812 L384.445312,35.882812 L384.445312,36.1875 C384.445312,39.234375 383.971354,42.39974 383.023438,45.683594 C382.075521,48.967448 380.924479,51.963542 379.570312,54.671875 L379.570312,54.671875 Z M379.0625,56.195312 C378.927083,56.263021 378.859375,56.178385 378.859375,55.9414062 C378.859375,55.704427 378.927083,55.619792 379.0625,55.6875 C379.197917,55.755208 379.265625,55.839844 379.265625,55.9414062 C379.265625,56.042969 379.197917,56.127604 379.0625,56.195312 Z M501.140625,76.101562 C504.796875,76.101562 508.317708,75.373698 511.703125,73.917969 C515.088542,72.46224 518.067708,70.481771 520.640625,67.976562 C523.213542,65.471354 525.278646,62.559896 526.835938,59.242188 C528.393229,55.924479 529.205729,52.4375 529.273438,48.78125 L529.273438,48.78125 L530.390625,48.273438 L543.085938,45.429688 C543.763021,45.294271 544.338542,44.955729 544.8125,44.414062 C545.286458,43.872396 545.523438,43.263021 545.523438,42.585938 C545.523438,42.044271 545.303385,41.570312 544.863281,41.164062 C544.423177,40.757812 543.966146,40.554688 543.492188,40.554688 C542.408854,40.554688 541.291667,40.723958 540.140625,41.0625 C538.515625,41.739583 537.313802,42.179688 536.535156,42.382812 C535.75651,42.585938 535.028646,42.704427 534.351562,42.738281 C533.674479,42.772135 532.861979,42.80599 531.914062,42.839844 C530.966146,42.873698 529.442708,43.059896 527.34375,43.398438 C526.9375,42.924479 526.345052,42.39974 525.566406,41.824219 C524.78776,41.248698 523.941406,40.690104 523.027344,40.148438 C522.113281,39.606771 521.199219,39.14974 520.285156,38.777344 C519.371094,38.404948 518.609375,38.21875 518,38.21875 C514.953125,38.21875 512.363281,38.726562 510.230469,39.742188 C508.097656,40.757812 506.21875,42.111979 504.59375,43.804688 C502.96875,45.497396 501.529948,47.460938 500.277344,49.695312 C499.02474,51.929688 497.822917,54.265625 496.671875,56.703125 L496.671875,56.703125 L495.25,63.101562 L495.25,64.117188 C495.25,64.252604 495.216146,64.50651 495.148438,64.878906 C495.080729,65.251302 495.013021,65.657552 494.945312,66.097656 C494.877604,66.53776 494.809896,66.960938 494.742188,67.367188 C494.674479,67.773438 494.640625,68.010417 494.640625,68.078125 C494.640625,69.5 494.928385,71.023438 495.503906,72.648438 C496.079427,74.273438 497.111979,75.390625 498.601562,76 C498.804688,76 499.210938,76.016927 499.820312,76.050781 C500.429688,76.084635 500.869792,76.101562 501.140625,76.101562 Z M502.96875,70.617188 L501.953125,70.617188 C501.479167,70.617188 501.208333,70.447917 501.140625,70.109375 C501.072917,69.838542 501.039062,69.330729 501.039062,68.585938 L501.039062,68.585938 L501.039062,67.164062 C501.039062,66.419271 501.072917,65.572917 501.140625,64.625 C501.208333,63.677083 501.309896,62.729167 501.445312,61.78125 C501.580729,60.833333 501.783854,59.953125 502.054688,59.140625 C502.325521,58.328125 502.697917,57.684896 503.171875,57.210938 L503.171875,57.210938 L511.601562,48.273438 L511.703125,48.273438 C513.734375,48.273438 515.833333,48.459635 518,48.832031 C520.166667,49.204427 522.333333,49.390625 524.5,49.390625 C524.5,51.963542 523.839844,54.519531 522.519531,57.058594 C521.199219,59.597656 519.50651,61.865885 517.441406,63.863281 C515.376302,65.860677 513.057292,67.485677 510.484375,68.738281 C507.911458,69.990885 505.40625,70.617188 502.96875,70.617188 L502.96875,70.617188 Z M582.390625,76.101562 C583.203125,76.101562 584.320312,76 585.742188,75.796875 C587.164062,75.59375 588.704427,75.255208 590.363281,74.78125 C592.022135,74.307292 593.68099,73.765625 595.339844,73.15625 C596.998698,72.546875 598.522135,71.835938 599.910156,71.023438 C601.298177,70.210938 602.432292,69.330729 603.3125,68.382812 C604.192708,67.434896 604.632812,66.419271 604.632812,65.335938 C604.632812,65.200521 604.615885,64.997396 604.582031,64.726562 C604.548177,64.455729 604.53125,64.252604 604.53125,64.117188 C604.125,63.778646 603.651042,63.609375 603.109375,63.609375 C602.973958,63.609375 602.872396,63.626302 602.804688,63.660156 C602.736979,63.69401 602.635417,63.710938 602.5,63.710938 C599.791667,66.013021 596.677083,67.824219 593.15625,69.144531 C589.635417,70.464844 586.080729,71.125 582.492188,71.125 C580.867188,71.125 579.546875,70.769531 578.53125,70.058594 C577.515625,69.347656 576.720052,68.416667 576.144531,67.265625 C575.56901,66.114583 575.179688,64.828125 574.976562,63.40625 C574.773438,61.984375 574.671875,60.5625 574.671875,59.140625 C574.671875,56.026042 574.959635,53.013021 575.535156,50.101562 C576.110677,47.190104 577.007812,44.278646 578.226562,41.367188 L578.226562,41.367188 L583.710938,8.15625 C583.914062,7.005208 583.727865,6.057292 583.152344,5.3125 C582.576823,4.567708 581.78125,4.195312 580.765625,4.195312 C579.953125,4.195312 579.242188,4.669271 578.632812,5.617188 C578.023438,6.565104 577.532552,7.716146 577.160156,9.070312 C576.78776,10.424479 576.533854,11.761719 576.398438,13.082031 C576.263021,14.402344 576.263021,15.434896 576.398438,16.179688 L576.398438,16.179688 L571.320312,37.914062 C570.507812,37.169271 569.678385,36.559896 568.832031,36.085938 C567.985677,35.611979 567.020833,35.375 565.9375,35.375 L565.9375,35.375 L564.515625,35.375 C564.380208,35.442708 563.940104,35.611979 563.195312,35.882812 C562.450521,36.153646 562.010417,36.322917 561.875,36.390625 C559.166667,36.932292 556.813802,37.507812 554.816406,38.117188 C552.81901,38.726562 551.109375,39.623698 549.6875,40.808594 C548.265625,41.99349 547.080729,43.483073 546.132812,45.277344 C545.184896,47.071615 544.338542,49.390625 543.59375,52.234375 L543.59375,52.234375 L542.171875,59.648438 L542.171875,70.617188 C542.171875,71.903646 542.764323,72.902344 543.949219,73.613281 C545.134115,74.324219 546.268229,74.679688 547.351562,74.679688 C548.028646,74.679688 548.536458,74.595052 548.875,74.425781 C549.213542,74.25651 549.789062,73.96875 550.601562,73.5625 C551.075521,73.291667 551.735677,72.936198 552.582031,72.496094 C553.428385,72.05599 554.257812,71.582031 555.070312,71.074219 C555.882812,70.566406 556.610677,70.126302 557.253906,69.753906 C557.897135,69.38151 558.286458,69.161458 558.421875,69.09375 C558.828125,68.822917 559.505208,68.298177 560.453125,67.519531 C561.401042,66.740885 562.39974,65.894531 563.449219,64.980469 C564.498698,64.066406 565.497396,63.203125 566.445312,62.390625 C567.393229,61.578125 568.036458,61.002604 568.375,60.664062 L568.375,60.664062 L568.882812,60.664062 C569.153646,62.830729 569.559896,64.845052 570.101562,66.707031 C570.643229,68.56901 571.438802,70.210938 572.488281,71.632812 C573.53776,73.054688 574.858073,74.154948 576.449219,74.933594 C578.040365,75.71224 580.020833,76.101562 582.390625,76.101562 Z M547.453125,69.195312 C547.453125,69.059896 547.470052,68.721354 547.503906,68.179688 C547.53776,67.638021 547.554688,67.299479 547.554688,67.164062 C547.622396,66.690104 547.707031,65.96224 547.808594,64.980469 C547.910156,63.998698 548.011719,62.949219 548.113281,61.832031 C548.214844,60.714844 548.316406,59.682292 548.417969,58.734375 C548.519531,57.786458 548.570312,57.109375 548.570312,56.703125 C548.299479,54.739583 548.671875,52.809896 549.6875,50.914062 C550.703125,49.018229 552.023438,47.342448 553.648438,45.886719 C555.273438,44.43099 557.016927,43.347656 558.878906,42.636719 C560.740885,41.925781 562.382812,41.807292 563.804688,42.28125 C564.278646,42.28125 564.83724,42.484375 565.480469,42.890625 C566.123698,43.296875 566.766927,43.770833 567.410156,44.3125 C568.053385,44.854167 568.628906,45.429688 569.136719,46.039062 C569.644531,46.648438 569.898438,47.122396 569.898438,47.460938 C569.898438,48.544271 569.458333,49.847656 568.578125,51.371094 C567.697917,52.894531 566.597656,54.434896 565.277344,55.992188 C563.957031,57.549479 562.450521,59.123698 560.757812,60.714844 C559.065104,62.30599 557.40625,63.727865 555.78125,64.980469 C554.15625,66.233073 552.598958,67.248698 551.109375,68.027344 C549.619792,68.80599 548.401042,69.195312 547.453125,69.195312 Z"></path>
        </g>
    </g>
</svg>